<svg xmlns="http://www.w3.org/2000/svg" width="680" height="36" viewBox="0 0 680 36" fill="none">
  <defs>
    <!-- Wood: dark butt (left) → pale maple shaft (right) -->
    <linearGradient id="cw" x1="0" y1="0" x2="680" y2="0" gradientUnits="userSpaceOnUse">
      <stop offset="0" stop-color="#4a3019"/>
      <stop offset=".23" stop-color="#6e4a28"/>
      <stop offset=".27" stop-color="#c9a36c"/>
      <stop offset=".6" stop-color="#d8bc88"/>
      <stop offset="1" stop-color="#ecdfba"/>
    </linearGradient>
    <!-- Cylindrical shading (highlight band down the middle) -->
    <linearGradient id="cy" x1="0" y1="0" x2="0" y2="36" gradientUnits="userSpaceOnUse">
      <stop offset="0" stop-color="#000" stop-opacity=".5"/>
      <stop offset=".4" stop-color="#fff" stop-opacity=".34"/>
      <stop offset=".62" stop-color="#fff" stop-opacity=".06"/>
      <stop offset="1" stop-color="#000" stop-opacity=".55"/>
    </linearGradient>
    <!-- Brass/gold rings -->
    <linearGradient id="cg" x1="0" y1="0" x2="0" y2="36" gradientUnits="userSpaceOnUse">
      <stop offset="0" stop-color="#7a5e18"/>
      <stop offset=".45" stop-color="#f1d985"/>
      <stop offset="1" stop-color="#6e520f"/>
    </linearGradient>
    <!-- Linen wrap on the butt -->
    <linearGradient id="cwrap" x1="0" y1="0" x2="0" y2="36" gradientUnits="userSpaceOnUse">
      <stop offset="0" stop-color="#15100a"/>
      <stop offset=".45" stop-color="#3a2a1a"/>
      <stop offset="1" stop-color="#0b0704"/>
    </linearGradient>
  </defs>

  <!-- Cue body: butt (left) → tip (right), tapered, centred on y=18 -->
  <path d="M18 11 L632 15.8 L632 20.2 L18 25 Q9 25 9 18 Q9 11 18 11 Z" fill="url(#cw)"/>
  <path d="M18 11 L632 15.8 L632 20.2 L18 25 Q9 25 9 18 Q9 11 18 11 Z" fill="url(#cy)"/>

  <!-- Butt wrap (grip) -->
  <path d="M18 11.6 L150 12.6 L150 23.4 L18 24.4 Q10 24.4 10 18 Q10 11.6 18 11.6 Z" fill="url(#cwrap)"/>
  <path d="M18 11.6 L150 12.6 L150 23.4 L18 24.4 Q10 24.4 10 18 Q10 11.6 18 11.6 Z" fill="url(#cy)"/>

  <!-- Gold butt cap + joint collar -->
  <rect x="11" y="11.4" width="6" height="13.2" rx="2" fill="url(#cg)"/>
  <rect x="149" y="12.3" width="9" height="11.4" rx="1" fill="url(#cg)"/>

  <!-- Ivory ferrule + leather tip -->
  <path d="M632 15.85 L650 16.4 L650 19.6 L632 20.15 Z" fill="#f4eddb"/>
  <path d="M650 16.4 L666 16.9 Q672 17.2 672 18 Q672 18.8 666 19.1 L650 19.6 Z" fill="#2f6f9e"/>
</svg>
